<svg id="icon-helefante-action" xmlns="http://www.w3.org/2000/svg" xmlns:xlink="http://www.w3.org/1999/xlink" x="0px" y="0px" viewBox="0 0 40.8 56.2"> <path d="M36.6,18.1C36,9.4,28.8,2.7,20.1,2.8c-3.1,0-6.1,0.8-8.7,2.4l1,1.1c5.3-3,12.1-1.1,15.1,4.3c1.7,3,1.9,6.7,0.5,9.9
c-0.6,1.4-1.6,2.5-2.8,3.3c0,0.6,0,1.2,0,1.9l0,0c0.3-0.1,0.5,0,0.8,0c0.3,0.1,0.5,0.2,0.7,0.4c0.2,0.1,0.3,0.3,0.4,0.5
c0.2,0.2,0.4,0.4,0.6,0.6c0.3,0.2,0.5,0.4,0.8,0.5c0.3,0.2,0.5,0.4,0.7,0.7c0,0.1,0.1,0.2,0.1,0.3c0.1,0,0.3,0.1,0.4,0.1
c0.5,0.2,0.9,0.5,1.2,0.9c0.3,0.5,0.3,1,0.2,1.5c-0.1,0.5-0.5,1-0.9,1.2s-1.1,0.4-1.5,0.2c-1.2-0.4-2.5-0.6-3.8-0.9
c-0.3,0.2-0.7,0.3-1.1,0.3c-0.3,0-0.6-0.1-0.9-0.2c-0.5,1.2-0.9,2.5-1.3,3.8c-0.6,1.9-1.3,3.8-2,5.6c-0.3,0.9-0.7,1.7-1,2.6
c2.3,0,4.5-0.2,6.7-0.7c3.1-0.8,5.5-2.5,7.2-5.3c0.8-2.8,1.9-5.3,3-8.6C36.6,25.6,36.9,21.8,36.6,18.1z" fill="currentColor"></path> <path d="M35.8,28c-3-1.4-5.8-3-8.6-4.8c-0.2,0.1-0.4,0.2-0.6,0.2c-0.3,0.1-0.6,0.2-0.9,0.2l0,0c-0.1,0.1-0.3,0.1-0.5,0.2
c-0.8,0.5-1.7,0.9-2.7,1.1c-2.3,0.4-4.4,1.8-5.5,3.9c-1,1.7-2.5,3.1-4.4,3.7C7.2,34.3,2.5,39.4,0.7,46.1c-0.9,3.3-1,6.8-0.2,10.2
h3.6c5.6-6.9,15.7-8,22.6-2.4c0.9,0.7,1.7,1.5,2.4,2.4H33c-0.7-3-1.9-6.3-1.8-9.7c0.2-8,2.3-11.2,4.3-17.4
C35.6,28.8,35.7,28.4,35.8,28z M22.7,29.9c-0.6,0-1.2-0.5-1.2-1.2s0.5-1.2,1.2-1.2c0.6,0,1.2,0.5,1.2,1.2
C23.8,29.4,23.3,29.9,22.7,29.9z" fill="currentColor"></path> </svg>